<?xml version="1.0" standalone="no"?>
<!DOCTYPE svg PUBLIC "-//W3C//DTD SVG 20010904//EN"
 "http://www.w3.org/TR/2001/REC-SVG-20010904/DTD/svg10.dtd">
<svg version="1.0" xmlns="http://www.w3.org/2000/svg"
 width="16.000000pt" height="16.000000pt" viewBox="0 0 16.000000 16.000000"
 preserveAspectRatio="xMidYMid meet">
<metadata>
Created by potrace 1.11, written by Peter Selinger 2001-2013
</metadata>
<g transform="translate(0.000000,16.000000) scale(0.002941,-0.002941)"
fill="#000000" stroke="none">
<path d="M2605 5254 c-211 -21 -429 -64 -585 -115 -394 -128 -725 -327 -1016
-611 l-111 -108 -329 0 c-298 0 -333 -2 -369 -19 -51 -23 -93 -65 -116 -116
-17 -37 -19 -78 -19 -605 0 -526 2 -568 19 -605 22 -49 74 -101 115 -116 l31
-11 0 -257 c0 -141 4 -268 8 -283 6 -25 4 -29 -35 -46 -53 -24 -95 -65 -119
-117 -17 -37 -19 -78 -19 -605 0 -527 2 -568 19 -605 23 -51 65 -93 116 -116
36 -17 72 -19 389 -19 l349 0 96 -92 c385 -369 858 -597 1421 -684 160 -25
538 -25 700 0 469 71 842 228 1220 510 122 91 385 354 476 476 282 378 438
751 511 1220 24 161 24 539 0 700 -73 469 -229 842 -511 1220 -91 122 -354
385 -476 476 -375 280 -754 439 -1210 509 -100 15 -468 28 -555 19z m525 -379
c710 -108 1330 -558 1651 -1197 163 -326 233 -625 233 -998 0 -146 -5 -238
-17 -320 -151 -977 -899 -1726 -1877 -1877 -140 -21 -492 -24 -615 -4 -259 41
-452 100 -670 205 -251 122 -440 260 -643 470 l-103 106 -335 0 -334 0 0 380
0 380 126 0 c115 0 125 1 120 18 -2 9 -14 60 -25 112 -75 358 -78 630 -12 998
l27 152 -118 0 -118 0 0 380 0 380 316 0 316 0 135 140 c213 221 397 356 655
479 248 119 490 186 783 215 83 8 404 -4 505 -19z"/>
<path d="M2515 4306 c-80 -36 -115 -109 -115 -239 l0 -94 -93 -36 c-109 -44
-221 -106 -314 -175 -68 -50 -211 -192 -268 -266 l-30 -38 -100 31 c-108 35
-138 35 -206 0 -21 -10 -46 -31 -57 -46 -10 -16 -51 -125 -91 -243 -79 -239
-86 -291 -51 -360 26 -51 73 -81 183 -116 l87 -28 0 -51 c0 -207 95 -498 224
-689 l46 -69 -51 -70 c-79 -108 -92 -139 -87 -201 7 -85 31 -112 227 -255 213
-155 231 -165 296 -165 76 0 119 30 199 138 l67 92 89 -23 c224 -56 474 -52
694 13 27 8 50 14 51 14 0 0 32 -42 70 -94 81 -110 123 -140 200 -140 65 0 83
10 296 165 196 143 220 170 227 255 5 63 -9 95 -92 207 l-54 73 45 70 c129
199 213 458 213 656 l0 66 98 32 c119 39 166 68 192 120 35 69 28 121 -51 360
-40 118 -81 227 -91 243 -11 15 -36 36 -57 46 -67 35 -98 35 -202 2 -53 -17
-103 -31 -111 -31 -8 0 -29 21 -47 46 -53 73 -179 196 -269 262 -85 63 -269
161 -342 183 l-40 12 0 101 c0 119 -19 169 -83 220 l-39 31 -266 2 c-208 2
-274 0 -297 -11z m429 -1076 c102 -26 176 -69 257 -149 80 -81 123 -155 149
-257 36 -141 17 -302 -52 -423 -41 -72 -147 -178 -219 -219 -121 -69 -282 -88
-423 -52 -102 26 -176 69 -257 149 -80 81 -123 155 -149 257 -36 141 -17 302
52 423 41 72 147 178 220 219 120 69 281 88 422 52z"/>
</g>
</svg>
