<?xml version="1.0" standalone="no"?>
<!DOCTYPE svg PUBLIC "-//W3C//DTD SVG 20010904//EN"
 "http://www.w3.org/TR/2001/REC-SVG-20010904/DTD/svg10.dtd">
<svg version="1.0" xmlns="http://www.w3.org/2000/svg"
 width="272.000000pt" height="272.000000pt" viewBox="0 0 272.000000 272.000000"
 preserveAspectRatio="xMidYMid meet">
<metadata>
Created by potrace 1.11, written by Peter Selinger 2001-2013
</metadata>
<g transform="translate(0.000000,272.000000) scale(0.100000,-0.100000)"
fill="#000000" stroke="none">
<path d="M1165 2608 c-249 -50 -462 -157 -647 -328 l-76 -70 -162 0 c-178 0
-208 -7 -235 -60 -12 -24 -15 -79 -15 -318 l0 -290 28 -29 c15 -16 33 -32 40
-34 11 -4 14 -38 15 -148 l1 -143 -27 -14 c-54 -29 -57 -48 -57 -354 0 -232 3
-286 15 -310 27 -53 56 -60 245 -60 l172 0 66 -60 c189 -171 382 -265 667
-325 63 -14 321 -13 404 1 276 45 510 165 709 362 256 256 385 575 378 937 -7
344 -131 639 -371 880 -199 199 -440 324 -712 369 -117 19 -323 16 -438 -6z
m412 -174 c439 -76 777 -383 897 -814 25 -92 31 -149 30 -300 -1 -159 -20
-259 -74 -392 -148 -363 -484 -630 -865 -686 -65 -9 -265 -9 -330 0 -230 34
-454 148 -620 317 l-70 71 -167 0 -168 0 0 190 0 190 60 0 c42 0 60 4 60 13
-1 6 -9 57 -20 112 -18 97 -22 307 -7 375 3 14 8 41 11 60 3 19 8 45 10 58 5
21 2 22 -55 22 l-59 0 0 190 0 190 158 0 157 0 80 81 c177 180 407 298 635
326 25 3 47 7 48 8 10 10 219 1 289 -11z"/>
<path d="M1257 2150 c-40 -19 -57 -52 -57 -116 l0 -50 -50 -18 c-77 -28 -169
-91 -240 -167 l-66 -68 -49 15 c-56 16 -95 11 -119 -15 -9 -10 -35 -72 -57
-137 -36 -105 -39 -123 -30 -155 12 -41 36 -59 99 -77 40 -12 42 -14 42 -52 0
-48 -1 -43 11 -82 5 -18 12 -46 14 -61 6 -32 52 -132 86 -188 l22 -37 -30 -43
c-16 -24 -33 -55 -36 -68 -6 -25 6 -65 26 -85 33 -32 191 -138 216 -146 39
-11 78 11 119 66 36 48 29 46 112 28 53 -11 198 -11 255 2 84 18 89 17 107
-14 27 -46 67 -80 98 -84 35 -5 59 8 177 95 112 83 123 118 59 207 l-34 48 32
54 c48 79 77 162 90 258 l11 84 63 24 c61 23 79 41 88 85 6 30 -73 261 -96
282 -25 23 -74 26 -126 8 l-43 -14 -83 84 c-70 71 -98 92 -176 128 l-91 44 -1
50 c0 58 -28 112 -62 120 -13 3 -74 7 -136 8 -84 1 -121 -2 -145 -13z m248
-544 c83 -35 147 -108 169 -193 56 -213 -134 -403 -347 -347 -150 39 -241 195
-202 346 41 161 229 257 380 194z"/>
</g>
</svg>
