<?xml version="1.0" encoding="UTF-8"?>
<svg width="134px" height="130px" viewBox="0 0 134 130" version="1.1" xmlns="http://www.w3.org/2000/svg" xmlns:xlink="http://www.w3.org/1999/xlink">
    <!-- Generator: Sketch 46.2 (44496) - http://www.bohemiancoding.com/sketch -->
    <title>vl-mark</title>
    <desc>Created with Sketch.</desc>
    <defs></defs>
    <g id="FINAL" stroke="none" stroke-width="1" fill="none" fill-rule="evenodd">
        <g id="Vault-Labs-Logo" transform="translate(-254.000000, -270.000000)">
            <g id="vl-logo" transform="translate(259.000000, 275.000000)">
                <g id="vl-mark">
                    <path d="M5.20021739,72 L0.998153687,72 C0.447365195,72 0,72.4461638 0,72.9965348 L0,99.0034652 C0,99.5601869 0.446888627,100 0.998153687,100 L19.2778699,100 C30.2642809,112.274987 46.2300037,120 64,120 C97.137085,120 124,93.137085 124,60 C124,26.862915 97.137085,0 64,0 C45.7521834,0 29.4069755,8.14603647 18.4024859,21 L0.998153687,21 C0.447365195,21 0,21.4461638 0,21.9965348 L0,48.0034652 C0,48.5601869 0.446888627,49 0.998153687,49 L5.00609625,49 C4.34537017,52.5659916 4,56.2426631 4,60 C4,64.1095901 4.41316311,68.1226807 5.20021739,72 Z" id="Combined-Shape" stroke="#323335" stroke-width="9"></path>
                    <path d="M30.6106906,59.5726982 L26.4255613,58.2128673 C23.909047,57.3952022 22.5361301,54.6791663 23.354229,52.161317 L26.6175446,42.117864 C27.4378089,39.5933502 30.1475484,38.2112179 32.6593167,39.0273409 L36.8634728,40.393354 C41.0195192,34.6344608 46.9787062,30.2630521 53.9136292,28.1065324 L53.9136292,23.8599066 C53.9136292,21.2138869 56.0724782,19.0688641 58.7199016,19.0688641 L69.280213,19.0688641 C71.934644,19.0688641 74.0864854,21.2188771 74.0864854,23.8599066 L74.0864854,28.2510351 C80.8321597,30.4561387 86.6257443,34.7658278 90.6913886,40.4042515 L95.3014827,38.9063411 C97.817997,38.088676 100.525156,39.4790149 101.343255,41.9968643 L104.60657,52.0403172 C105.426835,54.5648311 104.047006,57.2757445 101.535238,58.0918675 L96.9363889,59.5861242 C96.9367568,59.6505757 96.9369412,59.7150705 96.9369412,59.7796085 C96.9369412,67.0154049 94.6196058,73.7099587 90.6865994,79.1616056 L93.8245345,83.4806027 C95.3798259,85.6212776 94.8940931,88.6255771 92.7522825,90.1816936 L84.2088112,96.3888889 C82.0613314,97.9491242 79.0567091,97.4745479 77.504351,95.3379101 L74.4808999,91.1764867 C71.1218283,92.3217236 67.5202234,92.9430495 63.7735001,92.9430495 C60.1677834,92.9430495 56.6964678,92.3676104 53.4463782,91.3035571 L50.5085171,95.347176 C48.9532257,97.4878509 45.9458674,97.9542712 43.8040569,96.3981548 L35.2605855,90.1909595 C33.1131057,88.6307241 32.6359753,85.6265064 34.1883335,83.4898686 L37.0973672,79.4859273 C33.0206414,73.9764684 30.6100591,67.1595493 30.6100591,59.7796085 C30.6100591,59.710589 30.6102699,59.6416188 30.610691,59.5726984 Z M64.0000311,74.7897708 C72.0501989,74.7897708 78.5761493,68.2638204 78.5761493,60.2136526 C78.5761493,52.1634848 72.0501989,45.6375343 64.0000311,45.6375343 C55.9498633,45.6375343 49.4239129,52.1634848 49.4239129,60.2136526 C49.4239129,68.2638204 55.9498633,74.7897708 64.0000311,74.7897708 Z" id="Combined-Shape" fill="#323335"></path>
                </g>
            </g>
        </g>
    </g>
</svg>