<?xml version="1.0" encoding="UTF-8"?>
<svg width="134px" height="130px" viewBox="0 0 134 130" xmlns="http://www.w3.org/2000/svg" xmlns:xlink="http://www.w3.org/1999/xlink">
    <defs>
        <path d="M34.604512,56.7263516 L27.6653137,54.4716694 C27.2413247,54.333907 27.0080434,53.8823612 27.1454441,53.4594851 L30.3396243,43.6288094 C30.4764972,43.2075578 30.9357334,42.9792286 31.3551546,43.1155068 L38.1691462,45.3295069 C42.2849887,37.958753 49.4885753,32.5469566 58.0297356,30.8442881 L58.0297356,23.7352892 C58.0297356,23.2894808 58.3870934,22.9280817 58.8317316,22.9280817 L69.1683157,22.9280817 C69.6112458,22.9280817 69.9703116,23.2942837 69.9703116,23.7352892 L69.9703116,30.9287119 C78.3756801,32.7295852 85.4451207,38.1318298 89.4850639,45.4418762 L96.6448927,43.1155068 C97.0688817,42.9777444 97.5230222,43.2059333 97.660423,43.6288094 L100.854603,53.4594851 C100.991476,53.8807367 100.754155,54.3353912 100.334734,54.4716694 L92.99954,56.8550182 C93.0839629,57.7616412 93.1271226,58.6802411 93.1271226,59.6089214 C93.1271226,67.2270097 90.222849,74.1667686 85.4611097,79.3813902 L90.1459503,85.8295201 C90.4079898,86.1901866 90.3313064,86.6926142 89.9715866,86.953966 L81.6091143,93.0296577 C81.2507763,93.2900055 80.7450379,93.2047955 80.4858214,92.8480146 L75.7894134,86.3839635 C72.1280957,88.026522 68.0686891,88.9401509 63.7958931,88.9401509 C59.6429651,88.9401509 55.6916219,88.0770644 52.11145,86.5204784 L47.5142259,92.8480146 C47.2521863,93.2086811 46.7506528,93.2910095 46.3909329,93.0296577 L38.0284607,86.953966 C37.6701227,86.6936182 37.5948805,86.186301 37.854097,85.8295201 L42.3591917,79.6287891 C37.4620173,74.3872582 34.4646635,67.3481245 34.4646635,59.6089214 C34.4646635,58.6362838 34.5120056,57.6747035 34.6045112,56.7263592 Z M64,78.2878482 C74.1000997,78.2878482 82.2878482,70.1000997 82.2878482,60 C82.2878482,49.8999003 74.1000997,41.7121518 64,41.7121518 C53.8999003,41.7121518 45.7121518,49.8999003 45.7121518,60 C45.7121518,70.1000997 53.8999003,78.2878482 64,78.2878482 Z" id="path-1"></path>
    </defs>
    <g id="Refinement" stroke="none" stroke-width="1" fill="none" fill-rule="evenodd">
        <g id="Vault-Labs-Logo" transform="translate(-254.000000, -270.000000)">
            <g id="vl-logo" transform="translate(259.000000, 275.000000)">
                <g id="vl-mark">
                    <path d="M5.20021739,72 L0.998153687,72 C0.447365195,72 0,72.4461638 0,72.9965348 L0,99.0034652 C0,99.5601869 0.446888627,100 0.998153687,100 L19.2778699,100 C30.2642809,112.274987 46.2300037,120 64,120 C97.137085,120 124,93.137085 124,60 C124,26.862915 97.137085,0 64,0 C45.7521834,0 29.4069755,8.14603647 18.4024859,21 L0.998153687,21 C0.447365195,21 0,21.4461638 0,21.9965348 L0,48.0034652 C0,48.5601869 0.446888627,49 0.998153687,49 L5.00609625,49 C4.34537017,52.5659916 4,56.2426631 4,60 C4,64.1095901 4.41316311,68.1226807 5.20021739,72 Z" id="Combined-Shape" stroke="#323335" stroke-width="9"></path>
                    <g id="Combined-Shape">
                        <use fill="#323335" fill-rule="evenodd" xlink:href="#path-1"></use>
                        <path stroke="#323335" stroke-width="4" d="M32.4983011,58.1449266 C32.4758989,58.6314505 32.4646635,59.1195358 32.4646635,59.6089214 C32.4646635,67.090753 35.1002054,74.1642672 39.7971934,79.7524742 L36.236063,84.6539496 C35.3293893,85.9018789 35.5984106,87.6605673 36.8528902,88.572 L45.2153624,94.6476917 C46.4711124,95.5600475 48.2227038,95.2754816 49.1322599,94.0235851 L52.8112035,88.9599536 C56.2908119,90.2628779 59.9972324,90.9401509 63.7958931,90.9401509 C67.7118418,90.9401509 71.5292787,90.2203698 75.1003912,88.8382091 L78.8677874,94.0235851 C79.7744611,95.2715143 81.5302053,95.5591245 82.7846848,94.6476917 L91.1471571,88.572 C92.4029071,87.6596442 92.6735403,85.9058461 91.7639843,84.6539496 L88.0124062,79.4903454 C92.5750711,73.9409855 95.1271226,66.9718366 95.1271226,59.6089214 C95.1271226,59.1633771 95.11781,58.7189075 95.0992364,58.27571 L100.952768,56.3737824 C102.419796,55.8971158 103.235885,54.3161803 102.756716,52.8414511 L99.562536,43.0107754 C99.0828822,41.5345527 97.4985513,40.7352118 96.0268587,41.2133937 L90.3945081,43.0434554 C86.2135357,36.3417428 79.628552,31.4206274 71.9703116,29.3553645 L71.9703116,23.7352892 C71.9703116,22.1927638 70.7189377,20.9280817 69.1683157,20.9280817 L58.8317316,20.9280817 C57.2795392,20.9280817 56.0297356,22.18786 56.0297356,23.7352892 L56.0297356,29.2482819 C48.2441116,31.2350815 41.5280872,36.164612 37.2663564,42.9332482 L31.9731885,41.2133937 C30.5061597,40.7367272 28.9166798,41.5360462 28.4375112,43.0107754 L25.2433311,52.8414511 C24.7636773,54.3176738 25.5755871,55.8956005 27.0472797,56.3737824 L32.4983011,58.1449266 Z M64,76.2878482 C55.0044698,76.2878482 47.7121518,68.9955302 47.7121518,60 C47.7121518,51.0044698 55.0044698,43.7121518 64,43.7121518 C72.9955302,43.7121518 80.2878482,51.0044698 80.2878482,60 C80.2878482,68.9955302 72.9955302,76.2878482 64,76.2878482 Z"></path>
                    </g>
                </g>
            </g>
        </g>
    </g>
</svg>